<svg xmlns="http://www.w3.org/2000/svg" width="1024" height="1024" viewBox="0 0 1024 1024" version="1.1"><path d="M 264.748 149.422 C 248.924 153.989, 235.401 170.664, 234.228 187.056 C 233.955 190.875, 233.679 193.995, 233.616 193.989 C 233.552 193.983, 231.291 193.308, 228.591 192.489 C 214.135 188.104, 200.565 193.938, 194.084 207.326 C 192.203 211.212, 191.850 213.297, 192.183 218.539 C 192.637 225.669, 194.460 228.986, 199.990 232.750 L 203.296 235 282.188 235 C 358.517 235, 361.204 234.936, 364.914 233.044 C 369.891 230.505, 373.750 225.850, 374.590 221.372 C 377.895 203.753, 363.379 185.763, 344.642 184.259 C 337.277 183.668, 330.884 185.419, 323.645 190.010 L 319 192.956 319 188.583 C 319 173.257, 307.410 157.129, 291.958 150.953 C 285.090 148.209, 271.587 147.449, 264.748 149.422 M 766.500 193.453 C 760.113 195.192, 752.705 202.829, 750.637 209.804 C 749.552 213.462, 748.831 214.433, 747.372 214.198 C 734.827 212.176, 729.529 213.533, 723.211 220.387 C 716.578 227.583, 715.366 235.493, 719.919 241.886 C 724.269 247.996, 724.310 248, 774.151 247.998 C 824.707 247.997, 824.070 248.077, 828.730 241.102 C 834.245 232.846, 828.643 220.702, 817.325 216.380 C 813.379 214.873, 804.506 214.756, 799.088 216.139 C 798.150 216.379, 797.397 215.229, 796.847 212.718 C 795.720 207.575, 793.656 203.810, 789.914 200.067 C 783.382 193.536, 774.945 191.152, 766.500 193.453 M 496.124 376.578 C 481.987 380.380, 468.547 390.832, 461.429 403.560 C 455.984 413.296, 453.824 421.609, 453.648 433.500 C 453.462 446.043, 455.153 453.747, 460.475 464.619 C 465.212 474.294, 465.732 472.553, 456.387 478.316 C 438.968 489.057, 426.242 509.870, 424.479 530.500 L 423.795 538.500 427.882 543.624 C 435.616 553.320, 451.180 564.541, 465.500 570.746 C 503.949 587.407, 551.901 580.845, 581.392 554.886 L 586.031 550.803 579.968 543.963 L 573.904 537.124 570.702 538.978 C 561.551 544.276, 545.662 545.577, 534.718 541.925 C 526.053 539.033, 520.789 535.759, 514.452 529.320 C 493.421 507.950, 496.340 474.715, 520.870 456.266 C 531.492 448.276, 547.849 445.047, 560.831 448.376 C 564.313 449.269, 567.278 450, 567.420 450 C 567.562 450, 567.778 444.675, 567.900 438.167 C 568.295 417.014, 563.722 404.443, 551.105 392 C 538.756 379.821, 527.016 374.942, 510.356 375.066 C 505.485 375.102, 499.081 375.782, 496.124 376.578 M 540 464.935 C 531.284 467.596, 523.555 474.319, 519.809 482.500 C 516.640 489.421, 516.561 502.417, 519.647 509.122 C 522.697 515.748, 528.315 521.516, 534.839 524.720 C 539.600 527.058, 541.775 527.500, 548.515 527.500 C 555.552 527.500, 557.344 527.099, 563.208 524.215 C 570.214 520.769, 573.951 516.942, 578.064 509 C 579.883 505.488, 580.404 502.848, 580.434 496.981 C 580.474 489.481, 580.463 489.451, 576.487 485.744 C 574.294 483.699, 569.125 480.333, 565 478.263 C 560.875 476.193, 557.292 474.367, 557.038 474.205 C 556.784 474.042, 557.121 473.036, 557.788 471.968 C 558.455 470.901, 559 469.346, 559 468.514 C 559 467.681, 559.563 466.953, 560.250 466.895 C 560.938 466.837, 559.700 466.197, 557.500 465.472 C 553.100 464.022, 543.914 463.740, 540 464.935 M 591.607 518.587 L 588.919 523.397 594.576 528.949 L 600.233 534.500 599.638 529.767 C 599.311 527.164, 597.975 522.502, 596.669 519.406 L 594.296 513.777 591.607 518.587 M 347.488 651.017 C 329.261 654.641, 307.253 673.758, 287.069 703.500 C 280.840 712.679, 270.935 730.105, 266.749 739.250 C 264.991 743.089, 263.557 743.967, 262.662 741.750 C 262.385 741.063, 262.122 742.460, 262.079 744.856 L 262 749.211 201.750 748.890 C 141.098 748.566, 127.755 749.117, 118.149 752.341 C 113.888 753.771, 111.801 756.618, 114 757.999 C 118.567 760.866, 143.312 765.100, 172 767.924 C 256.069 776.197, 392.570 781.517, 515 781.290 C 695.590 780.956, 871.990 770.734, 899.750 758.994 C 903.203 757.534, 902.571 754.608, 898.482 753.130 C 891.634 750.653, 852.329 747.498, 818.500 746.710 L 809.500 746.500 817.268 742.622 C 848.123 727.218, 879.931 698.434, 880.295 685.586 C 880.537 677.050, 870.831 673.272, 853.539 675.173 C 836.990 676.992, 818.304 684.439, 788.750 700.992 C 784.487 703.380, 781.126 705.460, 781.281 705.614 C 781.436 705.769, 784.557 705.383, 788.217 704.756 C 796.414 703.352, 801.523 704.441, 804.302 708.187 L 806.296 710.874 803.466 716.687 C 800.496 722.787, 787.475 736.705, 777.160 744.806 L 771.820 749 712.910 749 L 654 749 653.985 746.750 C 653.976 745.513, 653.639 743.993, 653.235 743.372 C 652.730 742.598, 643.473 742.089, 623.709 741.748 C 607.874 741.475, 594.723 741.057, 594.485 740.819 C 594.248 740.581, 595.992 735.462, 598.361 729.443 C 606.878 707.811, 614.524 678.869, 613.317 672.833 C 612.473 668.613, 609.596 666.896, 605.664 668.267 C 596.491 671.465, 584.131 691.888, 575.064 718.833 L 570.240 733.167 570.115 718.995 C 569.973 702.859, 568.648 692.409, 565.963 686.246 C 562.798 678.984, 556.568 678.588, 551.590 685.331 C 549.692 687.902, 549.512 689.415, 549.634 701.831 C 549.708 709.349, 550.496 720.413, 551.384 726.418 C 552.272 732.422, 552.804 737.529, 552.566 737.767 C 552.329 738.005, 551.024 736.017, 549.667 733.349 C 545.860 725.869, 535.159 711.320, 528.439 704.487 C 521.617 697.550, 512.335 692.448, 508.355 693.447 C 504.810 694.337, 503.752 698.044, 505.571 703.201 C 508.096 710.358, 514.604 721.599, 521.977 731.538 L 528.996 741 462.248 741.077 C 425.537 741.119, 394.712 741.304, 393.750 741.488 C 390.931 742.028, 391.702 740.727, 396.412 736.995 C 404.849 730.312, 408.407 721.488, 404.200 717.681 C 398.831 712.822, 385.453 711.717, 371 714.938 C 354.563 718.601, 340.823 724.566, 326.250 734.366 C 321.712 737.418, 318 739.724, 318 739.492 C 318 739.259, 321.311 735.272, 325.358 730.631 C 340.757 712.969, 351.727 696.788, 357.046 683.889 C 364.875 664.903, 364.819 653.876, 356.881 651.108 C 353.364 649.882, 353.202 649.881, 347.488 651.017" stroke="none" fill="#f2dab5" fill-rule="evenodd"/><path d="M 487.769 284.051 C 469.935 286.530, 452.753 291.614, 437.241 299.001 C 388.777 322.079, 354.787 367.243, 344.806 421.822 C 341.710 438.750, 341.715 474.273, 344.815 491.230 C 357.627 561.310, 408.247 612.790, 476.922 625.581 C 535.303 636.454, 591.587 620.174, 631.042 581 C 660.522 551.731, 676.927 514.194, 679.961 469.064 C 683.546 415.758, 666.022 367.925, 629.549 331.451 C 605.699 307.601, 578.841 293.248, 544.500 285.999 C 533.028 283.578, 499.465 282.425, 487.769 284.051 M 216.160 294.750 C 215.026 295.712, 193.241 326.650, 167.750 363.500 C 115.781 438.624, 107.966 449.876, 89.957 475.500 C 83 485.400, 76.772 494.513, 76.118 495.751 C 75.317 497.266, 74.868 505.435, 74.744 520.751 C 74.542 545.605, 74.872 547.254, 80.561 549.846 C 82.399 550.683, 102.423 551, 153.493 551 L 223.892 551 224.196 581.583 L 224.500 612.167 227.766 615.083 C 231.503 618.421, 229.868 618.269, 259.350 618.033 C 272.336 617.929, 281.133 617.441, 282.675 616.738 C 287.709 614.445, 288 612.465, 288 580.550 L 288 551 301.600 551 L 315.200 551 318.600 547.600 L 322 544.200 322 521.550 C 322 497.562, 321.469 494.392, 317.055 492.030 C 315.997 491.463, 309.027 491, 301.566 491 L 288 491 288 395.400 L 288 299.800 284.600 296.400 L 281.200 293 249.711 293 C 221.173 293, 218.028 293.164, 216.160 294.750 M 846.265 294.968 C 845.104 296.050, 835.195 309.887, 824.245 325.718 C 813.296 341.548, 799.169 361.925, 792.851 371 C 786.533 380.075, 777.143 393.575, 771.982 401 C 766.822 408.425, 759.469 419, 755.642 424.500 C 751.815 430, 743.877 441.475, 738.002 450 C 732.127 458.525, 722.298 472.656, 716.160 481.402 L 705 497.304 705 520.752 L 705 544.200 708.400 547.600 L 711.800 551 783.400 551 L 855 551 855 580.550 C 855 612.618, 855.275 614.437, 860.472 616.805 C 862.277 617.628, 870.741 618, 887.647 618 L 912.200 618 915.600 614.600 L 919 611.200 919 581.176 L 919 551.151 933.085 550.826 L 947.169 550.500 950.085 547.234 L 953 543.968 953 520.884 L 953 497.800 949.600 494.400 L 946.200 491 932.600 491 L 919 491 919 396.450 C 919 314.523, 918.801 301.515, 917.506 299.011 C 914.384 292.975, 914.543 293, 879.966 293 C 849.933 293, 848.273 293.097, 846.265 294.968 M 499 333.624 C 460.693 338.505, 432.409 356.938, 413.161 389.563 C 394.790 420.703, 390.897 465.477, 403.402 501.802 C 411.164 524.348, 427.337 546.576, 445.309 559.401 C 485.841 588.324, 545.660 586.339, 581.392 554.886 L 586.031 550.803 579.968 543.963 L 573.904 537.124 570.702 538.978 C 558.154 546.242, 538.319 545.550, 524.202 537.354 C 513.210 530.973, 503.144 516.242, 500.869 503.205 C 497.084 481.518, 511.505 457.237, 532.500 449.948 C 562.465 439.544, 592.584 458.050, 597.198 489.700 C 598.671 499.809, 596.843 509.786, 592.019 517.968 L 588.855 523.335 594.821 529.301 L 600.787 535.267 604.347 530.383 C 606.305 527.698, 610.138 521.225, 612.865 516 C 631.777 479.764, 631.192 430.227, 611.425 394.139 C 594.566 363.359, 566.953 342.232, 534.698 335.434 C 527.455 333.907, 505.509 332.794, 499 333.624 M 209.345 399.222 C 201.560 410.925, 184.595 436.250, 171.646 455.500 L 148.101 490.500 185.705 490.762 C 206.387 490.906, 223.468 490.865, 223.663 490.670 C 223.858 490.476, 223.901 465.033, 223.758 434.130 L 223.500 377.944 209.345 399.222 M 841.849 395.814 C 835.442 405.541, 825.746 420.025, 820.305 428 C 814.863 435.975, 805.682 449.475, 799.904 458 C 794.125 466.525, 786.832 477.159, 783.698 481.631 C 780.564 486.103, 778 490.041, 778 490.381 C 778 490.722, 795.332 491, 816.515 491 L 855.031 491 854.984 434.500 C 854.958 403.425, 854.613 378.029, 854.218 378.064 C 853.823 378.100, 848.257 386.087, 841.849 395.814 M 540 464.876 C 530.999 467.838, 523.543 474.346, 519.809 482.500 C 516.640 489.421, 516.561 502.417, 519.647 509.122 C 522.697 515.748, 528.315 521.516, 534.839 524.720 C 539.600 527.058, 541.775 527.500, 548.515 527.500 C 555.552 527.500, 557.344 527.099, 563.208 524.215 C 570.222 520.765, 573.973 516.920, 578.050 509 C 581.015 503.241, 581.274 492.870, 578.645 485.238 C 576.201 478.148, 568.626 469.951, 561.770 466.980 C 556.131 464.536, 544.460 463.408, 540 464.876 M 779 588.966 C 773.788 590.027, 768.797 592.380, 761.261 597.327 C 739.450 611.645, 720.721 634.736, 704.866 666.855 L 697.233 682.320 697.742 673.387 C 698.450 660.965, 696.466 641.833, 693.959 636.920 C 690.640 630.413, 684.418 630.774, 677.630 637.867 C 670.054 645.784, 661.118 665.803, 657.515 682.927 C 653.738 700.882, 651.708 733.550, 653.642 745.250 L 654.262 749 713.041 749 L 771.820 749 777.160 744.806 C 787.416 736.752, 800.497 722.784, 803.434 716.752 C 806.114 711.248, 806.162 710.896, 804.564 708.457 C 802.623 705.495, 799.247 704, 794.500 704 C 787.959 704, 776.411 707.061, 769 710.758 C 764.875 712.816, 761.161 714.650, 760.747 714.834 C 760.332 715.018, 762.203 711.607, 764.903 707.253 C 771.421 696.744, 779.408 680.713, 783.686 669.554 C 794.136 642.295, 799.098 604.825, 793.652 594.294 C 791.441 590.019, 785.118 587.719, 779 588.966 M 113.450 607.007 C 102.264 608.615, 99.795 613.913, 104.094 627.085 C 110.989 648.213, 130.812 673.266, 156.231 692.979 C 161.535 697.093, 165.765 700.568, 165.631 700.702 C 165.498 700.836, 160.463 699.559, 154.444 697.865 C 144.863 695.169, 141.798 694.768, 129.838 694.643 C 116.663 694.505, 116.085 694.586, 113.588 696.924 C 108.998 701.224, 110.590 706.413, 119.097 714.883 C 128.645 724.389, 140.385 732.069, 161 742.298 L 173.500 748.500 217.619 748.789 L 261.738 749.078 262.386 743.789 C 262.743 740.880, 263.305 727.700, 263.635 714.500 C 264.123 695.029, 263.926 688.424, 262.593 679.500 C 259.367 657.890, 255.113 645.926, 248.638 640.250 C 245.564 637.555, 244.125 637.004, 240.215 637.022 C 234.807 637.048, 232.101 638.794, 229.401 644 C 227.893 646.907, 227.524 650.550, 227.222 665.500 C 227.021 675.400, 227.247 688.179, 227.723 693.898 C 228.333 701.218, 228.280 703.770, 227.544 702.519 C 217.135 684.817, 200.144 661.115, 188.802 648.477 C 162.989 619.714, 134.421 603.992, 113.450 607.007" stroke="none" fill="#21344a" fill-rule="evenodd"/></svg>