<svg width="80" height="80" viewBox="0 0 1024 1024" xmlns="http://www.w3.org/2000/svg">
    <path d="M 286.963 346.250 C 243.904 388.660, 226.651 410.340, 211.957 440.500 C 196.688 471.841, 190 501.994, 190 539.500 C 190 586.912, 201.308 626.193, 225.266 662 C 238.220 681.360, 246.908 690.977, 293.024 737 C 344.871 788.743, 349.115 792.707, 367.148 806.237 C 411.307 839.371, 453.005 857.108, 504.500 864.664 C 513.654 866.007, 523.140 866.433, 544.500 866.462 C 569.007 866.495, 574.309 866.212, 587 864.193 C 648.808 854.357, 699.990 828.236, 744.014 784.060 C 778.783 749.170, 798.086 712.790, 806.653 666 C 809.136 652.439, 809.170 613.418, 806.711 600 C 798.866 557.197, 784.636 528.415, 754.801 495 C 743.671 482.534, 722.795 463.135, 722.251 464.754 C 722.020 465.444, 717.749 472.194, 712.760 479.754 C 704.094 492.886, 702.034 495.164, 666.648 530.750 C 640.266 557.281, 630.206 568, 631.688 568 C 632.832 568, 637.526 569.881, 642.119 572.179 C 648.599 575.423, 652.398 578.277, 659.085 584.929 C 674.003 599.768, 680.238 614.447, 680.353 635 C 680.422 647.448, 678.469 656.143, 673.283 666.475 C 663.739 685.490, 644.679 701.993, 624.500 708.715 C 617.355 711.095, 614.951 711.386, 602 711.435 C 586.042 711.496, 579.474 710.251, 568.322 705.053 C 557.642 700.074, 551.169 694.869, 526.500 671.422 C 493.419 639.980, 327.466 472.959, 327.645 471.287 C 327.756 470.240, 327.472 470.194, 326.401 471.082 C 325.289 472.005, 323.415 470.681, 317.021 464.459 C 299.177 447.093, 289.099 426.313, 285.984 400.454 C 283.260 377.850, 288.955 351.553, 300.074 335.392 C 301.736 332.977, 302.950 331, 302.771 331 C 302.593 331, 295.479 337.863, 286.963 346.250"
          fill="#043a63" fill-rule="evenodd"/>
    <path d="M 518 177.087 C 473.576 182.780, 434.116 201.434, 398.610 233.526 C 381.083 249.367, 306.010 326.507, 301.328 333.486 C 279.367 366.222, 280.105 414.076, 303.097 448.191 C 307.479 454.693, 321.088 469.420, 324.329 471.169 C 325.897 472.014, 337.541 460.809, 405.829 392.740 C 453.489 345.233, 488.112 311.499, 492 308.782 C 500.741 302.673, 507.183 299.548, 517.693 296.318 C 525.605 293.886, 527.974 293.617, 541 293.671 C 558.028 293.742, 566.389 295.568, 579.321 302.041 C 589.426 307.098, 596.241 312.303, 604.644 321.378 C 619.267 337.173, 625.946 354.609, 625.983 377.090 C 626.011 394.100, 621.688 408.159, 611.789 423.250 C 606.487 431.333, 595.629 442.597, 525.757 512.500 L 445.792 592.500 480.626 626.869 C 499.784 645.772, 517.843 663.274, 520.757 665.763 L 526.054 670.289 555.777 640.975 C 572.125 624.853, 612.103 585.075, 644.617 552.581 C 703.721 493.514, 703.737 493.497, 712.959 479.500 C 724.144 462.525, 729.704 451.341, 734.831 435.500 C 742.292 412.449, 743.507 403.920, 743.449 375 C 743.402 351.250, 743.214 348.632, 740.715 336.854 C 734.230 306.303, 723.253 281.979, 704.902 257.500 C 672.517 214.299, 623.346 185.609, 567.872 177.545 C 556.454 175.885, 529.320 175.636, 518 177.087"
          fill="#fb9411" fill-rule="evenodd"/>
</svg>